<?xml version="1.0" encoding="UTF-8" standalone="no"?>
<!DOCTYPE svg PUBLIC "-//W3C//DTD SVG 1.1//EN" "http://www.w3.org/Graphics/SVG/1.1/DTD/svg11.dtd">
<svg width="100%" height="100%" viewBox="0 0 600 600" version="1.1" xmlns="http://www.w3.org/2000/svg" xmlns:xlink="http://www.w3.org/1999/xlink" xml:space="preserve" xmlns:serif="http://www.serif.com/" style="fill-rule:evenodd;clip-rule:evenodd;stroke-linecap:round;stroke-linejoin:round;stroke-miterlimit:1.5;">
    <g transform="matrix(1.15829,0,0,1.15829,15.1361,-234.439)">
        <text x="78.802px" y="526.832px" style="font-family:'Futura-Medium', 'Futura', sans-serif;font-weight:500;font-size:144px;">Can I?</text>
    </g>
    <g transform="matrix(0.999914,0.0131342,-0.0131342,0.999914,-27.8895,26.8149)">
        <path d="M90.507,309.382L90.507,354.941L52.889,284.851L90.507,214.761L90.507,260.319C90.507,260.319 90.507,214.761 90.507,214.761L128.124,284.851L90.507,354.941C90.507,354.941 90.507,309.382 90.507,309.382Z" style="fill:rgb(71,255,167);stroke:black;stroke-width:0.2px;"/>
    </g>
    <g transform="matrix(0.732678,-0.649801,0.636183,0.717324,-188.661,167.311)">
        <path d="M90.507,309.382L90.507,354.941L52.889,284.851L90.507,214.761L90.507,260.319L90.507,260.319L90.507,214.761L128.124,284.851L90.507,354.941L90.507,309.382L90.507,309.382Z" style="fill:rgb(71,255,167);stroke:black;stroke-width:0.36px;"/>
    </g>
</svg>
